<svg width="40" height="40" viewBox="0 0 40 40" fill="none" xmlns="http://www.w3.org/2000/svg">
<g clip-path="url(#clip0_138_352)">
<path d="M37.7897 0.000732422H2.20766C0.989232 0.000732422 0 0.988005 0 2.20843V37.7911C0 39.0115 0.989232 40.0001 2.20766 40.0001H21.364V24.51H16.1517V18.4724H21.364V14.0201C21.364 8.85457 24.5181 6.04028 29.127 6.04028C31.3366 6.04028 33.2315 6.2056 33.784 6.27739V11.6768L30.5871 11.6781C28.0811 11.6781 27.5977 12.8695 27.5977 14.6168V18.4704H33.5766L32.7948 24.5073H27.5971V39.9981H37.789C39.0088 39.9981 39.9987 39.0082 39.9987 37.7911V2.20711C39.998 0.988005 39.0094 0.000732422 37.7897 0.000732422Z" fill="white"/>
</g>
<defs>
<clipPath id="clip0_138_352">
<rect width="40" height="40" fill="white"/>
</clipPath>
</defs>
</svg>
