<svg width="40" height="40" viewBox="0 0 40 40" fill="none" xmlns="http://www.w3.org/2000/svg">
<g clip-path="url(#clip0_138_355)">
<path d="M39.9609 28.2398C39.8672 30.3651 39.5235 31.8263 39.0312 33.0924C38.5233 34.4364 37.7419 35.6396 36.7181 36.6398C35.7178 37.6557 34.5067 38.445 33.1783 38.945C31.9048 39.4373 30.4513 39.781 28.326 39.8747C26.1847 39.9764 25.505 39.9999 20.0742 39.9999C14.6435 39.9999 13.9637 39.9764 11.8304 39.8827C9.70507 39.789 8.24391 39.445 6.9781 38.9529C5.63384 38.445 4.4306 37.6636 3.43034 36.6398C2.41452 35.6396 1.62549 34.4284 1.12521 33.1C0.632861 31.8263 0.289166 30.3731 0.195459 28.2477C0.0938156 26.1065 0.0703125 25.4267 0.0703125 19.996C0.0703125 14.5652 0.0938156 13.8855 0.187523 11.7522C0.28123 9.62682 0.62523 8.16566 1.11758 6.89954C1.62549 5.55559 2.41452 4.35235 3.43034 3.3521C4.4306 2.33627 5.64177 1.54694 6.97016 1.04696C8.24391 0.554615 9.69713 0.210918 11.8228 0.11721C13.9558 0.023201 14.6358 0 20.0666 0C25.4973 0 26.1771 0.023201 28.3104 0.11721C30.4357 0.210918 31.8969 0.554615 33.1627 1.04696C35.8509 2.08628 37.9763 4.21164 39.0156 6.89954C39.5076 8.17329 39.8516 9.62682 39.9454 11.7522C40.0391 13.8855 40.0626 14.5652 40.0626 19.996C40.0626 25.4267 40.0546 26.1065 39.9609 28.2398ZM36.3588 11.9085C36.2728 9.95495 35.9446 8.90005 35.6711 8.19679C34.999 6.4542 33.616 5.07118 31.8734 4.39906C31.1701 4.12556 30.1076 3.79744 28.1617 3.71166C26.052 3.61765 25.4192 3.59445 20.0822 3.59445C14.7451 3.59445 14.1044 3.61765 12.0023 3.71166C10.0488 3.79744 8.99387 4.12556 8.29061 4.39906C7.42343 4.71955 6.63409 5.22746 5.99341 5.89165C5.32921 6.54028 4.8213 7.32168 4.5008 8.18886C4.22731 8.89212 3.89919 9.95495 3.81341 11.9005C3.7194 14.0103 3.6962 14.6434 3.6962 19.9804C3.6962 25.3174 3.7194 25.9581 3.81341 28.06C3.89919 30.0135 4.22731 31.0684 4.5008 31.7716C4.8213 32.6391 5.32921 33.4282 6.00134 34.0692C6.64966 34.7333 7.43106 35.2413 8.29854 35.5615C9.00181 35.8349 10.0646 36.1631 12.0102 36.2491C14.12 36.3429 14.7531 36.3664 20.0898 36.3664C25.4348 36.3664 26.0675 36.3429 28.1697 36.2491C30.1232 36.1631 31.1781 35.8349 31.8813 35.5615C32.7485 35.2413 33.5378 34.7333 34.1785 34.0692C34.8427 33.4205 35.3506 32.6391 35.6711 31.7716C35.9446 31.0684 36.2728 30.0059 36.3588 28.06C36.4525 25.9502 36.476 25.3174 36.476 19.9804C36.476 14.6434 36.4525 14.0182 36.3588 11.9085Z" fill="white"/>
<path d="M20.0742 9.72845C14.4014 9.72845 9.79871 14.3308 9.79871 20.0039C9.79871 25.677 14.4014 30.2793 20.0742 30.2793C25.7473 30.2793 30.3496 25.677 30.3496 20.0039C30.3496 14.3308 25.7473 9.72845 20.0742 9.72845ZM20.0742 26.6693C16.3939 26.6693 13.4087 23.6844 13.4087 20.0039C13.4087 16.3234 16.3939 13.3385 20.0742 13.3385C23.7547 13.3385 26.7396 16.3234 26.7396 20.0039C26.7396 23.6844 23.7547 26.6693 20.0742 26.6693Z" fill="white"/>
<path d="M33.1551 9.32218C33.1551 10.6469 32.0809 11.721 30.7559 11.721C29.4312 11.721 28.3571 10.6469 28.3571 9.32218C28.3571 7.99716 29.4312 6.92334 30.7559 6.92334C32.0809 6.92334 33.1551 7.99716 33.1551 9.32218Z" fill="white"/>
</g>
<defs>
<clipPath id="clip0_138_355">
<rect width="40" height="40" fill="white"/>
</clipPath>
</defs>
</svg>
