<svg width="398" height="209" viewBox="0 0 398 209" fill="none" xmlns="http://www.w3.org/2000/svg">
<g filter="url(#filter0_d_380_195)">
<rect x="8" y="7" width="180" height="86" rx="13" fill="#F8F6F3"/>
</g>
<g filter="url(#filter1_d_380_195)">
<rect x="8" y="108" width="180" height="86" rx="13" fill="#F8F6F3"/>
</g>
<g filter="url(#filter2_d_380_195)">
<rect x="203" y="7" width="181" height="86" rx="13" fill="#F8F6F3"/>
</g>
<g filter="url(#filter3_d_380_195)">
<rect x="203" y="108" width="181" height="86" rx="13" fill="#F8F6F3"/>
</g>
<ellipse cx="32" cy="50.5" rx="9" ry="9.5" fill="#ED9B64"/>
<ellipse cx="32" cy="150.5" rx="9" ry="9.5" fill="#FFF06D"/>
<ellipse cx="227" cy="50.5" rx="10" ry="9.5" fill="#7FC193"/>
<ellipse cx="227" cy="150.5" rx="10" ry="9.5" fill="#8D95C3"/>
<path d="M59.688 57.096C58.8453 57.096 58.0667 56.9573 57.352 56.68C56.6373 56.392 56.0187 55.992 55.496 55.48C54.9733 54.968 54.5627 54.3653 54.264 53.672C53.976 52.9787 53.832 52.2213 53.832 51.4C53.832 50.5787 53.976 49.8213 54.264 49.128C54.5627 48.4347 54.9733 47.832 55.496 47.32C56.0293 46.808 56.6533 46.4133 57.368 46.136C58.0827 45.848 58.8613 45.704 59.704 45.704C60.5147 45.704 61.2773 45.8427 61.992 46.12C62.7067 46.3867 63.3093 46.792 63.8 47.336L63.048 48.088C62.5893 47.6187 62.0827 47.2827 61.528 47.08C60.9733 46.8667 60.376 46.76 59.736 46.76C59.064 46.76 58.44 46.8773 57.864 47.112C57.288 47.336 56.7867 47.6613 56.36 48.088C55.9333 48.504 55.5973 48.9947 55.352 49.56C55.1173 50.1147 55 50.728 55 51.4C55 52.072 55.1173 52.6907 55.352 53.256C55.5973 53.8107 55.9333 54.3013 56.36 54.728C56.7867 55.144 57.288 55.4693 57.864 55.704C58.44 55.928 59.064 56.04 59.736 56.04C60.376 56.04 60.9733 55.9333 61.528 55.72C62.0827 55.5067 62.5893 55.1653 63.048 54.696L63.8 55.448C63.3093 55.992 62.7067 56.4027 61.992 56.68C61.2773 56.9573 60.5093 57.096 59.688 57.096ZM71.223 57V55.144L71.175 54.84V51.736C71.175 51.0213 70.9723 50.472 70.567 50.088C70.1723 49.704 69.5803 49.512 68.791 49.512C68.247 49.512 67.7297 49.6027 67.239 49.784C66.7483 49.9653 66.3323 50.2053 65.991 50.504L65.479 49.656C65.9057 49.2933 66.4177 49.016 67.015 48.824C67.6123 48.6213 68.2417 48.52 68.903 48.52C69.991 48.52 70.8283 48.792 71.415 49.336C72.0123 49.8693 72.311 50.6853 72.311 51.784V57H71.223ZM68.327 57.08C67.6977 57.08 67.1483 56.9787 66.679 56.776C66.2203 56.5627 65.8683 56.2747 65.623 55.912C65.3777 55.5387 65.255 55.112 65.255 54.632C65.255 54.1947 65.3563 53.8 65.559 53.448C65.7723 53.0853 66.1137 52.7973 66.583 52.584C67.063 52.36 67.703 52.248 68.503 52.248H71.399V53.096H68.535C67.7243 53.096 67.159 53.24 66.839 53.528C66.5297 53.816 66.375 54.1733 66.375 54.6C66.375 55.08 66.5617 55.464 66.935 55.752C67.3083 56.04 67.831 56.184 68.503 56.184C69.143 56.184 69.6923 56.04 70.151 55.752C70.6203 55.4533 70.9617 55.0267 71.175 54.472L71.431 55.256C71.2177 55.8107 70.8443 56.2533 70.311 56.584C69.7883 56.9147 69.127 57.08 68.327 57.08ZM75.3965 57V48.6H76.4845V50.888L76.3725 50.488C76.6072 49.848 77.0018 49.3627 77.5565 49.032C78.1112 48.6907 78.7992 48.52 79.6205 48.52V49.624C79.5778 49.624 79.5352 49.624 79.4925 49.624C79.4498 49.6133 79.4072 49.608 79.3645 49.608C78.4792 49.608 77.7858 49.88 77.2845 50.424C76.7832 50.9573 76.5325 51.72 76.5325 52.712V57H75.3965ZM86.0294 57.08C85.2934 57.08 84.632 56.9147 84.0454 56.584C83.4587 56.2427 82.9947 55.752 82.6534 55.112C82.312 54.472 82.1414 53.6987 82.1414 52.792C82.1414 51.8747 82.312 51.1013 82.6534 50.472C83.0054 49.832 83.4747 49.3467 84.0614 49.016C84.648 48.6853 85.304 48.52 86.0294 48.52C86.8294 48.52 87.544 48.7013 88.1734 49.064C88.8134 49.416 89.3147 49.912 89.6774 50.552C90.04 51.192 90.2214 51.9387 90.2214 52.792C90.2214 53.6347 90.04 54.3813 89.6774 55.032C89.3147 55.672 88.8134 56.1733 88.1734 56.536C87.544 56.8987 86.8294 57.08 86.0294 57.08ZM81.6934 57V45.128H82.8294V51.08L82.6694 52.776L82.7814 54.472V57H81.6934ZM85.9494 56.072C86.5467 56.072 87.08 55.9387 87.5494 55.672C88.0187 55.3947 88.392 55.0107 88.6694 54.52C88.9467 54.0187 89.0854 53.4427 89.0854 52.792C89.0854 52.1307 88.9467 51.5547 88.6694 51.064C88.392 50.5733 88.0187 50.1947 87.5494 49.928C87.08 49.6507 86.5467 49.512 85.9494 49.512C85.352 49.512 84.8134 49.6507 84.3334 49.928C83.864 50.1947 83.4907 50.5733 83.2134 51.064C82.9467 51.5547 82.8134 52.1307 82.8134 52.792C82.8134 53.4427 82.9467 54.0187 83.2134 54.52C83.4907 55.0107 83.864 55.3947 84.3334 55.672C84.8134 55.9387 85.352 56.072 85.9494 56.072ZM94.7931 57.08C94.0998 57.08 93.4438 56.984 92.8251 56.792C92.2065 56.5893 91.7211 56.3387 91.3691 56.04L91.8811 55.144C92.2225 55.4 92.6598 55.624 93.1931 55.816C93.7265 55.9973 94.2865 56.088 94.8731 56.088C95.6731 56.088 96.2491 55.9653 96.6011 55.72C96.9531 55.464 97.1291 55.128 97.1291 54.712C97.1291 54.4027 97.0278 54.1627 96.8251 53.992C96.6331 53.8107 96.3771 53.6773 96.0571 53.592C95.7371 53.496 95.3798 53.416 94.9851 53.352C94.5905 53.288 94.1958 53.2133 93.8011 53.128C93.4171 53.0427 93.0651 52.92 92.7451 52.76C92.4251 52.5893 92.1638 52.36 91.9611 52.072C91.7691 51.784 91.6731 51.4 91.6731 50.92C91.6731 50.4613 91.8011 50.0507 92.0571 49.688C92.3131 49.3253 92.6865 49.0427 93.1771 48.84C93.6785 48.6267 94.2865 48.52 95.0011 48.52C95.5451 48.52 96.0891 48.5947 96.6331 48.744C97.1771 48.8827 97.6251 49.0693 97.9771 49.304L97.4811 50.216C97.1078 49.96 96.7078 49.7787 96.2811 49.672C95.8545 49.5547 95.4278 49.496 95.0011 49.496C94.2438 49.496 93.6838 49.6293 93.3211 49.896C92.9691 50.152 92.7931 50.4827 92.7931 50.888C92.7931 51.208 92.8891 51.4587 93.0811 51.64C93.2838 51.8213 93.5451 51.9653 93.8651 52.072C94.1958 52.168 94.5531 52.248 94.9371 52.312C95.3318 52.376 95.7211 52.456 96.1051 52.552C96.4998 52.6373 96.8571 52.76 97.1771 52.92C97.5078 53.0693 97.7691 53.288 97.9611 53.576C98.1638 53.8533 98.2651 54.2213 98.2651 54.68C98.2651 55.1707 98.1265 55.5973 97.8491 55.96C97.5825 56.312 97.1878 56.5893 96.6651 56.792C96.1531 56.984 95.5291 57.08 94.7931 57.08Z" fill="black"/>
<path d="M55.88 151.224H61.8V152.248H55.88V151.224ZM56.008 157H54.824V145.8H62.504V146.824H56.008V157ZM69.6293 157V155.144L69.5813 154.84V151.736C69.5813 151.021 69.3786 150.472 68.9733 150.088C68.5786 149.704 67.9866 149.512 67.1973 149.512C66.6533 149.512 66.1359 149.603 65.6453 149.784C65.1546 149.965 64.7386 150.205 64.3973 150.504L63.8853 149.656C64.3119 149.293 64.8239 149.016 65.4213 148.824C66.0186 148.621 66.6479 148.52 67.3093 148.52C68.3973 148.52 69.2346 148.792 69.8213 149.336C70.4186 149.869 70.7173 150.685 70.7173 151.784V157H69.6293ZM66.7333 157.08C66.1039 157.08 65.5546 156.979 65.0853 156.776C64.6266 156.563 64.2746 156.275 64.0293 155.912C63.7839 155.539 63.6613 155.112 63.6613 154.632C63.6613 154.195 63.7626 153.8 63.9653 153.448C64.1786 153.085 64.5199 152.797 64.9893 152.584C65.4693 152.36 66.1093 152.248 66.9093 152.248H69.8053V153.096H66.9413C66.1306 153.096 65.5653 153.24 65.2453 153.528C64.9359 153.816 64.7812 154.173 64.7812 154.6C64.7812 155.08 64.9679 155.464 65.3413 155.752C65.7146 156.04 66.2373 156.184 66.9093 156.184C67.5493 156.184 68.0986 156.04 68.5573 155.752C69.0266 155.453 69.3679 155.027 69.5813 154.472L69.8373 155.256C69.6239 155.811 69.2506 156.253 68.7173 156.584C68.1946 156.915 67.5333 157.08 66.7333 157.08ZM76.4588 157.08C75.6694 157.08 75.0614 156.867 74.6348 156.44C74.2081 156.013 73.9948 155.411 73.9948 154.632V146.744H75.1308V154.568C75.1308 155.059 75.2534 155.437 75.4988 155.704C75.7548 155.971 76.1174 156.104 76.5868 156.104C77.0881 156.104 77.5041 155.96 77.8348 155.672L78.2348 156.488C78.0108 156.691 77.7388 156.84 77.4188 156.936C77.1094 157.032 76.7894 157.08 76.4588 157.08ZM72.4908 149.544V148.6H77.6908V149.544H72.4908ZM82.5588 157.08C81.8654 157.08 81.2094 156.984 80.5908 156.792C79.9721 156.589 79.4868 156.339 79.1348 156.04L79.6468 155.144C79.9881 155.4 80.4254 155.624 80.9588 155.816C81.4921 155.997 82.0521 156.088 82.6388 156.088C83.4388 156.088 84.0148 155.965 84.3668 155.72C84.7188 155.464 84.8948 155.128 84.8948 154.712C84.8948 154.403 84.7934 154.163 84.5908 153.992C84.3988 153.811 84.1428 153.677 83.8228 153.592C83.5028 153.496 83.1454 153.416 82.7508 153.352C82.3561 153.288 81.9614 153.213 81.5668 153.128C81.1828 153.043 80.8308 152.92 80.5108 152.76C80.1908 152.589 79.9294 152.36 79.7268 152.072C79.5348 151.784 79.4388 151.4 79.4388 150.92C79.4388 150.461 79.5668 150.051 79.8228 149.688C80.0788 149.325 80.4521 149.043 80.9428 148.84C81.4441 148.627 82.0521 148.52 82.7668 148.52C83.3108 148.52 83.8548 148.595 84.3988 148.744C84.9428 148.883 85.3908 149.069 85.7428 149.304L85.2468 150.216C84.8734 149.96 84.4734 149.779 84.0468 149.672C83.6201 149.555 83.1934 149.496 82.7668 149.496C82.0094 149.496 81.4494 149.629 81.0868 149.896C80.7348 150.152 80.5588 150.483 80.5588 150.888C80.5588 151.208 80.6548 151.459 80.8468 151.64C81.0494 151.821 81.3108 151.965 81.6308 152.072C81.9614 152.168 82.3188 152.248 82.7028 152.312C83.0974 152.376 83.4868 152.456 83.8708 152.552C84.2654 152.637 84.6228 152.76 84.9428 152.92C85.2734 153.069 85.5348 153.288 85.7268 153.576C85.9294 153.853 86.0308 154.221 86.0308 154.68C86.0308 155.171 85.8921 155.597 85.6148 155.96C85.3481 156.312 84.9534 156.589 84.4308 156.792C83.9188 156.984 83.2948 157.08 82.5588 157.08Z" fill="black"/>
<path d="M255.72 157.096C254.877 157.096 254.093 156.957 253.368 156.68C252.653 156.392 252.029 155.992 251.496 155.48C250.973 154.957 250.563 154.355 250.264 153.672C249.976 152.979 249.832 152.221 249.832 151.4C249.832 150.579 249.976 149.827 250.264 149.144C250.563 148.451 250.973 147.848 251.496 147.336C252.029 146.813 252.653 146.413 253.368 146.136C254.083 145.848 254.867 145.704 255.72 145.704C256.563 145.704 257.341 145.848 258.056 146.136C258.771 146.413 259.389 146.808 259.912 147.32C260.445 147.832 260.856 148.435 261.144 149.128C261.443 149.821 261.592 150.579 261.592 151.4C261.592 152.221 261.443 152.979 261.144 153.672C260.856 154.365 260.445 154.968 259.912 155.48C259.389 155.992 258.771 156.392 258.056 156.68C257.341 156.957 256.563 157.096 255.72 157.096ZM255.72 156.04C256.392 156.04 257.011 155.928 257.576 155.704C258.152 155.469 258.648 155.144 259.064 154.728C259.491 154.301 259.821 153.811 260.056 153.256C260.291 152.691 260.408 152.072 260.408 151.4C260.408 150.728 260.291 150.115 260.056 149.56C259.821 148.995 259.491 148.504 259.064 148.088C258.648 147.661 258.152 147.336 257.576 147.112C257.011 146.877 256.392 146.76 255.72 146.76C255.048 146.76 254.424 146.877 253.848 147.112C253.272 147.336 252.771 147.661 252.344 148.088C251.928 148.504 251.597 148.995 251.352 149.56C251.117 150.115 251 150.728 251 151.4C251 152.061 251.117 152.675 251.352 153.24C251.597 153.805 251.928 154.301 252.344 154.728C252.771 155.144 253.272 155.469 253.848 155.704C254.424 155.928 255.048 156.04 255.72 156.04ZM266.74 157.08C265.951 157.08 265.343 156.867 264.916 156.44C264.489 156.013 264.276 155.411 264.276 154.632V146.744H265.412V154.568C265.412 155.059 265.535 155.437 265.78 155.704C266.036 155.971 266.399 156.104 266.868 156.104C267.369 156.104 267.785 155.96 268.116 155.672L268.516 156.488C268.292 156.691 268.02 156.84 267.7 156.936C267.391 157.032 267.071 157.08 266.74 157.08ZM262.772 149.544V148.6H267.972V149.544H262.772ZM274.872 148.52C275.555 148.52 276.152 148.653 276.664 148.92C277.187 149.176 277.592 149.571 277.88 150.104C278.179 150.637 278.328 151.309 278.328 152.12V157H277.192V152.232C277.192 151.347 276.968 150.68 276.52 150.232C276.083 149.773 275.464 149.544 274.664 149.544C274.067 149.544 273.544 149.667 273.096 149.912C272.659 150.147 272.317 150.493 272.072 150.952C271.837 151.4 271.72 151.944 271.72 152.584V157H270.584V145.128H271.72V150.904L271.496 150.472C271.763 149.864 272.189 149.389 272.776 149.048C273.363 148.696 274.061 148.52 274.872 148.52ZM284.965 157.08C284.09 157.08 283.322 156.899 282.661 156.536C281.999 156.163 281.482 155.656 281.109 155.016C280.735 154.365 280.549 153.624 280.549 152.792C280.549 151.96 280.725 151.224 281.077 150.584C281.439 149.944 281.93 149.443 282.549 149.08C283.178 148.707 283.882 148.52 284.661 148.52C285.45 148.52 286.149 148.701 286.757 149.064C287.375 149.416 287.861 149.917 288.213 150.568C288.565 151.208 288.741 151.949 288.741 152.792C288.741 152.845 288.735 152.904 288.725 152.968C288.725 153.021 288.725 153.08 288.725 153.144H281.413V152.296H288.117L287.669 152.632C287.669 152.024 287.535 151.485 287.269 151.016C287.013 150.536 286.661 150.163 286.213 149.896C285.765 149.629 285.247 149.496 284.661 149.496C284.085 149.496 283.567 149.629 283.109 149.896C282.65 150.163 282.293 150.536 282.037 151.016C281.781 151.496 281.653 152.045 281.653 152.664V152.84C281.653 153.48 281.791 154.045 282.069 154.536C282.357 155.016 282.751 155.395 283.253 155.672C283.765 155.939 284.346 156.072 284.997 156.072C285.509 156.072 285.983 155.981 286.421 155.8C286.869 155.619 287.253 155.341 287.573 154.968L288.213 155.704C287.839 156.152 287.37 156.493 286.805 156.728C286.25 156.963 285.637 157.08 284.965 157.08ZM291.053 157V148.6H292.141V150.888L292.029 150.488C292.263 149.848 292.658 149.363 293.213 149.032C293.767 148.691 294.455 148.52 295.277 148.52V149.624C295.234 149.624 295.191 149.624 295.149 149.624C295.106 149.613 295.063 149.608 295.021 149.608C294.135 149.608 293.442 149.88 292.941 150.424C292.439 150.957 292.189 151.72 292.189 152.712V157H291.053Z" fill="black"/>
<path d="M250.824 57V45.8H255.016C255.965 45.8 256.781 45.9547 257.464 46.264C258.147 46.5627 258.669 47 259.032 47.576C259.405 48.1413 259.592 48.8293 259.592 49.64C259.592 50.4293 259.405 51.112 259.032 51.688C258.669 52.2533 258.147 52.6907 257.464 53C256.781 53.3093 255.965 53.464 255.016 53.464H251.48L252.008 52.904V57H250.824ZM252.008 53L251.48 52.424H254.984C256.104 52.424 256.952 52.184 257.528 51.704C258.115 51.2133 258.408 50.5253 258.408 49.64C258.408 48.744 258.115 48.0507 257.528 47.56C256.952 47.0693 256.104 46.824 254.984 46.824H251.48L252.008 46.264V53ZM261.709 57V48.6H262.797V50.888L262.685 50.488C262.92 49.848 263.314 49.3627 263.869 49.032C264.424 48.6907 265.112 48.52 265.933 48.52V49.624C265.89 49.624 265.848 49.624 265.805 49.624C265.762 49.6133 265.72 49.608 265.677 49.608C264.792 49.608 264.098 49.88 263.597 50.424C263.096 50.9573 262.845 51.72 262.845 52.712V57H261.709ZM271.352 57.08C270.541 57.08 269.81 56.8987 269.16 56.536C268.52 56.1627 268.013 55.656 267.64 55.016C267.266 54.3653 267.08 53.624 267.08 52.792C267.08 51.9493 267.266 51.208 267.64 50.568C268.013 49.928 268.52 49.4267 269.16 49.064C269.8 48.7013 270.53 48.52 271.352 48.52C272.184 48.52 272.92 48.7013 273.56 49.064C274.21 49.4267 274.717 49.928 275.08 50.568C275.453 51.208 275.64 51.9493 275.64 52.792C275.64 53.624 275.453 54.3653 275.08 55.016C274.717 55.656 274.21 56.1627 273.56 56.536C272.909 56.8987 272.173 57.08 271.352 57.08ZM271.352 56.072C271.96 56.072 272.498 55.9387 272.968 55.672C273.437 55.3947 273.805 55.0107 274.072 54.52C274.349 54.0187 274.488 53.4427 274.488 52.792C274.488 52.1307 274.349 51.5547 274.072 51.064C273.805 50.5733 273.437 50.1947 272.968 49.928C272.498 49.6507 271.965 49.512 271.368 49.512C270.77 49.512 270.237 49.6507 269.768 49.928C269.298 50.1947 268.925 50.5733 268.648 51.064C268.37 51.5547 268.232 52.1307 268.232 52.792C268.232 53.4427 268.37 54.0187 268.648 54.52C268.925 55.0107 269.298 55.3947 269.768 55.672C270.237 55.9387 270.765 56.072 271.352 56.072ZM280.615 57.08C279.826 57.08 279.218 56.8667 278.791 56.44C278.364 56.0133 278.151 55.4107 278.151 54.632V46.744H279.287V54.568C279.287 55.0587 279.41 55.4373 279.655 55.704C279.911 55.9707 280.274 56.104 280.743 56.104C281.244 56.104 281.66 55.96 281.991 55.672L282.391 56.488C282.167 56.6907 281.895 56.84 281.575 56.936C281.266 57.032 280.946 57.08 280.615 57.08ZM276.647 49.544V48.6H281.847V49.544H276.647ZM287.73 57.08C286.855 57.08 286.087 56.8987 285.426 56.536C284.765 56.1627 284.247 55.656 283.874 55.016C283.501 54.3653 283.314 53.624 283.314 52.792C283.314 51.96 283.49 51.224 283.842 50.584C284.205 49.944 284.695 49.4427 285.314 49.08C285.943 48.7067 286.647 48.52 287.426 48.52C288.215 48.52 288.914 48.7013 289.522 49.064C290.141 49.416 290.626 49.9173 290.978 50.568C291.33 51.208 291.506 51.9493 291.506 52.792C291.506 52.8453 291.501 52.904 291.49 52.968C291.49 53.0213 291.49 53.08 291.49 53.144H284.178V52.296H290.882L290.434 52.632C290.434 52.024 290.301 51.4853 290.034 51.016C289.778 50.536 289.426 50.1627 288.978 49.896C288.53 49.6293 288.013 49.496 287.426 49.496C286.85 49.496 286.333 49.6293 285.874 49.896C285.415 50.1627 285.058 50.536 284.802 51.016C284.546 51.496 284.418 52.0453 284.418 52.664V52.84C284.418 53.48 284.557 54.0453 284.834 54.536C285.122 55.016 285.517 55.3947 286.018 55.672C286.53 55.9387 287.111 56.072 287.762 56.072C288.274 56.072 288.749 55.9813 289.186 55.8C289.634 55.6187 290.018 55.3413 290.338 54.968L290.978 55.704C290.605 56.152 290.135 56.4933 289.57 56.728C289.015 56.9627 288.402 57.08 287.73 57.08ZM293.818 57V48.6H294.954V57H293.818ZM294.394 46.744C294.16 46.744 293.962 46.664 293.802 46.504C293.642 46.344 293.562 46.152 293.562 45.928C293.562 45.704 293.642 45.5173 293.802 45.368C293.962 45.208 294.16 45.128 294.394 45.128C294.629 45.128 294.826 45.2027 294.986 45.352C295.146 45.5013 295.226 45.688 295.226 45.912C295.226 46.1467 295.146 46.344 294.986 46.504C294.837 46.664 294.64 46.744 294.394 46.744ZM302.403 48.52C303.086 48.52 303.683 48.6533 304.195 48.92C304.718 49.176 305.123 49.5707 305.411 50.104C305.71 50.6373 305.859 51.3093 305.859 52.12V57H304.723V52.232C304.723 51.3467 304.499 50.68 304.051 50.232C303.614 49.7733 302.995 49.544 302.195 49.544C301.598 49.544 301.075 49.6667 300.627 49.912C300.19 50.1467 299.849 50.4933 299.603 50.952C299.369 51.4 299.251 51.944 299.251 52.584V57H298.115V48.6H299.203V50.904L299.027 50.472C299.294 49.864 299.721 49.3893 300.307 49.048C300.894 48.696 301.593 48.52 302.403 48.52Z" fill="black"/>
<path d="M113.02 56.23V53.53L123.37 40H127.54L117.34 53.53L115.39 52.93H132.04V56.23H113.02ZM124.54 61V56.23L124.66 52.93V48.7H128.32V61H124.54ZM142.441 61.3C140.781 61.3 139.281 60.88 137.941 60.04C136.621 59.2 135.581 57.98 134.821 56.38C134.061 54.76 133.681 52.8 133.681 50.5C133.681 48.2 134.061 46.25 134.821 44.65C135.581 43.03 136.621 41.8 137.941 40.96C139.281 40.12 140.781 39.7 142.441 39.7C144.121 39.7 145.621 40.12 146.941 40.96C148.261 41.8 149.301 43.03 150.061 44.65C150.841 46.25 151.231 48.2 151.231 50.5C151.231 52.8 150.841 54.76 150.061 56.38C149.301 57.98 148.261 59.2 146.941 60.04C145.621 60.88 144.121 61.3 142.441 61.3ZM142.441 57.91C143.421 57.91 144.271 57.65 144.991 57.13C145.711 56.59 146.271 55.77 146.671 54.67C147.091 53.57 147.301 52.18 147.301 50.5C147.301 48.8 147.091 47.41 146.671 46.33C146.271 45.23 145.711 44.42 144.991 43.9C144.271 43.36 143.421 43.09 142.441 43.09C141.501 43.09 140.661 43.36 139.921 43.9C139.201 44.42 138.631 45.23 138.211 46.33C137.811 47.41 137.611 48.8 137.611 50.5C137.611 52.18 137.811 53.57 138.211 54.67C138.631 55.77 139.201 56.59 139.921 57.13C140.661 57.65 141.501 57.91 142.441 57.91ZM156.807 61L171.147 40H174.087L159.747 61H156.807ZM158.547 51.31C157.567 51.31 156.697 51.07 155.937 50.59C155.177 50.11 154.587 49.44 154.167 48.58C153.747 47.72 153.537 46.71 153.537 45.55C153.537 44.39 153.747 43.38 154.167 42.52C154.587 41.66 155.177 40.99 155.937 40.51C156.697 40.03 157.567 39.79 158.547 39.79C159.567 39.79 160.447 40.03 161.187 40.51C161.947 40.99 162.537 41.66 162.957 42.52C163.377 43.38 163.587 44.39 163.587 45.55C163.587 46.71 163.377 47.72 162.957 48.58C162.537 49.44 161.947 50.11 161.187 50.59C160.447 51.07 159.567 51.31 158.547 51.31ZM158.577 49.21C159.377 49.21 159.997 48.9 160.437 48.28C160.897 47.64 161.127 46.73 161.127 45.55C161.127 44.37 160.897 43.47 160.437 42.85C159.997 42.21 159.377 41.89 158.577 41.89C157.777 41.89 157.137 42.21 156.657 42.85C156.197 43.49 155.967 44.39 155.967 45.55C155.967 46.71 156.197 47.61 156.657 48.25C157.137 48.89 157.777 49.21 158.577 49.21ZM172.317 61.21C171.337 61.21 170.467 60.97 169.707 60.49C168.947 60.01 168.357 59.34 167.937 58.48C167.517 57.62 167.307 56.61 167.307 55.45C167.307 54.29 167.517 53.28 167.937 52.42C168.357 51.56 168.947 50.89 169.707 50.41C170.467 49.93 171.337 49.69 172.317 49.69C173.337 49.69 174.217 49.93 174.957 50.41C175.717 50.89 176.307 51.56 176.727 52.42C177.147 53.28 177.357 54.29 177.357 55.45C177.357 56.61 177.147 57.62 176.727 58.48C176.307 59.34 175.717 60.01 174.957 60.49C174.217 60.97 173.337 61.21 172.317 61.21ZM172.317 59.11C173.117 59.11 173.747 58.79 174.207 58.15C174.667 57.51 174.897 56.61 174.897 55.45C174.897 54.29 174.667 53.39 174.207 52.75C173.747 52.11 173.117 51.79 172.317 51.79C171.537 51.79 170.907 52.11 170.427 52.75C169.967 53.37 169.737 54.27 169.737 55.45C169.737 56.63 169.967 57.54 170.427 58.18C170.907 58.8 171.537 59.11 172.317 59.11Z" fill="black"/>
<path d="M113.05 162V159.39L121.39 151.47C122.09 150.81 122.61 150.23 122.95 149.73C123.29 149.23 123.51 148.77 123.61 148.35C123.73 147.91 123.79 147.5 123.79 147.12C123.79 146.16 123.46 145.42 122.8 144.9C122.14 144.36 121.17 144.09 119.89 144.09C118.87 144.09 117.94 144.27 117.1 144.63C116.28 144.99 115.57 145.54 114.97 146.28L112.24 144.18C113.06 143.08 114.16 142.23 115.54 141.63C116.94 141.01 118.5 140.7 120.22 140.7C121.74 140.7 123.06 140.95 124.18 141.45C125.32 141.93 126.19 142.62 126.79 143.52C127.41 144.42 127.72 145.49 127.72 146.73C127.72 147.41 127.63 148.09 127.45 148.77C127.27 149.43 126.93 150.13 126.43 150.87C125.93 151.61 125.2 152.44 124.24 153.36L117.07 160.17L116.26 158.7H128.53V162H113.05ZM139.541 162.3C137.881 162.3 136.381 161.88 135.041 161.04C133.721 160.2 132.681 158.98 131.921 157.38C131.161 155.76 130.781 153.8 130.781 151.5C130.781 149.2 131.161 147.25 131.921 145.65C132.681 144.03 133.721 142.8 135.041 141.96C136.381 141.12 137.881 140.7 139.541 140.7C141.221 140.7 142.721 141.12 144.041 141.96C145.361 142.8 146.401 144.03 147.161 145.65C147.941 147.25 148.331 149.2 148.331 151.5C148.331 153.8 147.941 155.76 147.161 157.38C146.401 158.98 145.361 160.2 144.041 161.04C142.721 161.88 141.221 162.3 139.541 162.3ZM139.541 158.91C140.521 158.91 141.371 158.65 142.091 158.13C142.811 157.59 143.371 156.77 143.771 155.67C144.191 154.57 144.401 153.18 144.401 151.5C144.401 149.8 144.191 148.41 143.771 147.33C143.371 146.23 142.811 145.42 142.091 144.9C141.371 144.36 140.521 144.09 139.541 144.09C138.601 144.09 137.761 144.36 137.021 144.9C136.301 145.42 135.731 146.23 135.311 147.33C134.911 148.41 134.711 149.8 134.711 151.5C134.711 153.18 134.911 154.57 135.311 155.67C135.731 156.77 136.301 157.59 137.021 158.13C137.761 158.65 138.601 158.91 139.541 158.91ZM153.906 162L168.246 141H171.186L156.846 162H153.906ZM155.646 152.31C154.666 152.31 153.796 152.07 153.036 151.59C152.276 151.11 151.686 150.44 151.266 149.58C150.846 148.72 150.636 147.71 150.636 146.55C150.636 145.39 150.846 144.38 151.266 143.52C151.686 142.66 152.276 141.99 153.036 141.51C153.796 141.03 154.666 140.79 155.646 140.79C156.666 140.79 157.546 141.03 158.286 141.51C159.046 141.99 159.636 142.66 160.056 143.52C160.476 144.38 160.686 145.39 160.686 146.55C160.686 147.71 160.476 148.72 160.056 149.58C159.636 150.44 159.046 151.11 158.286 151.59C157.546 152.07 156.666 152.31 155.646 152.31ZM155.676 150.21C156.476 150.21 157.096 149.9 157.536 149.28C157.996 148.64 158.226 147.73 158.226 146.55C158.226 145.37 157.996 144.47 157.536 143.85C157.096 143.21 156.476 142.89 155.676 142.89C154.876 142.89 154.236 143.21 153.756 143.85C153.296 144.49 153.066 145.39 153.066 146.55C153.066 147.71 153.296 148.61 153.756 149.25C154.236 149.89 154.876 150.21 155.676 150.21ZM169.416 162.21C168.436 162.21 167.566 161.97 166.806 161.49C166.046 161.01 165.456 160.34 165.036 159.48C164.616 158.62 164.406 157.61 164.406 156.45C164.406 155.29 164.616 154.28 165.036 153.42C165.456 152.56 166.046 151.89 166.806 151.41C167.566 150.93 168.436 150.69 169.416 150.69C170.436 150.69 171.316 150.93 172.056 151.41C172.816 151.89 173.406 152.56 173.826 153.42C174.246 154.28 174.456 155.29 174.456 156.45C174.456 157.61 174.246 158.62 173.826 159.48C173.406 160.34 172.816 161.01 172.056 161.49C171.316 161.97 170.436 162.21 169.416 162.21ZM169.416 160.11C170.216 160.11 170.846 159.79 171.306 159.15C171.766 158.51 171.996 157.61 171.996 156.45C171.996 155.29 171.766 154.39 171.306 153.75C170.846 153.11 170.216 152.79 169.416 152.79C168.636 152.79 168.006 153.11 167.526 153.75C167.066 154.37 166.836 155.27 166.836 156.45C166.836 157.63 167.066 158.54 167.526 159.18C168.006 159.8 168.636 160.11 169.416 160.11Z" fill="black"/>
<path d="M312.68 162V142.5L314.39 144.27H308.24V141H316.58V162H312.68ZM327.706 162.3C326.226 162.3 324.776 162.09 323.356 161.67C321.956 161.23 320.776 160.63 319.816 159.87L321.466 156.84C322.226 157.46 323.146 157.96 324.226 158.34C325.326 158.72 326.466 158.91 327.646 158.91C329.026 158.91 330.106 158.62 330.886 158.04C331.686 157.46 332.086 156.68 332.086 155.7C332.086 155.04 331.916 154.46 331.576 153.96C331.256 153.46 330.676 153.08 329.836 152.82C329.016 152.56 327.886 152.43 326.446 152.43H321.376L322.456 141H334.786V144.27H323.896L325.936 142.41L325.126 150.96L323.086 149.13H327.316C329.396 149.13 331.066 149.41 332.326 149.97C333.606 150.51 334.536 151.27 335.116 152.25C335.716 153.21 336.016 154.31 336.016 155.55C336.016 156.77 335.716 157.89 335.116 158.91C334.516 159.93 333.596 160.75 332.356 161.37C331.136 161.99 329.586 162.3 327.706 162.3ZM340.912 162L355.252 141H358.192L343.852 162H340.912ZM342.652 152.31C341.672 152.31 340.802 152.07 340.042 151.59C339.282 151.11 338.692 150.44 338.272 149.58C337.852 148.72 337.642 147.71 337.642 146.55C337.642 145.39 337.852 144.38 338.272 143.52C338.692 142.66 339.282 141.99 340.042 141.51C340.802 141.03 341.672 140.79 342.652 140.79C343.672 140.79 344.552 141.03 345.292 141.51C346.052 141.99 346.642 142.66 347.062 143.52C347.482 144.38 347.692 145.39 347.692 146.55C347.692 147.71 347.482 148.72 347.062 149.58C346.642 150.44 346.052 151.11 345.292 151.59C344.552 152.07 343.672 152.31 342.652 152.31ZM342.682 150.21C343.482 150.21 344.102 149.9 344.542 149.28C345.002 148.64 345.232 147.73 345.232 146.55C345.232 145.37 345.002 144.47 344.542 143.85C344.102 143.21 343.482 142.89 342.682 142.89C341.882 142.89 341.242 143.21 340.762 143.85C340.302 144.49 340.072 145.39 340.072 146.55C340.072 147.71 340.302 148.61 340.762 149.25C341.242 149.89 341.882 150.21 342.682 150.21ZM356.422 162.21C355.442 162.21 354.572 161.97 353.812 161.49C353.052 161.01 352.462 160.34 352.042 159.48C351.622 158.62 351.412 157.61 351.412 156.45C351.412 155.29 351.622 154.28 352.042 153.42C352.462 152.56 353.052 151.89 353.812 151.41C354.572 150.93 355.442 150.69 356.422 150.69C357.442 150.69 358.322 150.93 359.062 151.41C359.822 151.89 360.412 152.56 360.832 153.42C361.252 154.28 361.462 155.29 361.462 156.45C361.462 157.61 361.252 158.62 360.832 159.48C360.412 160.34 359.822 161.01 359.062 161.49C358.322 161.97 357.442 162.21 356.422 162.21ZM356.422 160.11C357.222 160.11 357.852 159.79 358.312 159.15C358.772 158.51 359.002 157.61 359.002 156.45C359.002 155.29 358.772 154.39 358.312 153.75C357.852 153.11 357.222 152.79 356.422 152.79C355.642 152.79 355.012 153.11 354.532 153.75C354.072 154.37 353.842 155.27 353.842 156.45C353.842 157.63 354.072 158.54 354.532 159.18C355.012 159.8 355.642 160.11 356.422 160.11Z" fill="black"/>
<path d="M316.05 60V57.39L324.39 49.47C325.09 48.81 325.61 48.23 325.95 47.73C326.29 47.23 326.51 46.77 326.61 46.35C326.73 45.91 326.79 45.5 326.79 45.12C326.79 44.16 326.46 43.42 325.8 42.9C325.14 42.36 324.17 42.09 322.89 42.09C321.87 42.09 320.94 42.27 320.1 42.63C319.28 42.99 318.57 43.54 317.97 44.28L315.24 42.18C316.06 41.08 317.16 40.23 318.54 39.63C319.94 39.01 321.5 38.7 323.22 38.7C324.74 38.7 326.06 38.95 327.18 39.45C328.32 39.93 329.19 40.62 329.79 41.52C330.41 42.42 330.72 43.49 330.72 44.73C330.72 45.41 330.63 46.09 330.45 46.77C330.27 47.43 329.93 48.13 329.43 48.87C328.93 49.61 328.2 50.44 327.24 51.36L320.07 58.17L319.26 56.7H331.53V60H316.05ZM340.741 60.3C339.261 60.3 337.811 60.09 336.391 59.67C334.991 59.23 333.811 58.63 332.851 57.87L334.501 54.84C335.261 55.46 336.181 55.96 337.261 56.34C338.361 56.72 339.501 56.91 340.681 56.91C342.061 56.91 343.141 56.62 343.921 56.04C344.721 55.46 345.121 54.68 345.121 53.7C345.121 53.04 344.951 52.46 344.611 51.96C344.291 51.46 343.711 51.08 342.871 50.82C342.051 50.56 340.921 50.43 339.481 50.43H334.411L335.491 39H347.821V42.27H336.931L338.971 40.41L338.161 48.96L336.121 47.13H340.351C342.431 47.13 344.101 47.41 345.361 47.97C346.641 48.51 347.571 49.27 348.151 50.25C348.751 51.21 349.051 52.31 349.051 53.55C349.051 54.77 348.751 55.89 348.151 56.91C347.551 57.93 346.631 58.75 345.391 59.37C344.171 59.99 342.621 60.3 340.741 60.3ZM353.948 60L368.288 39H371.228L356.888 60H353.948ZM355.688 50.31C354.708 50.31 353.838 50.07 353.078 49.59C352.318 49.11 351.728 48.44 351.308 47.58C350.888 46.72 350.677 45.71 350.677 44.55C350.677 43.39 350.888 42.38 351.308 41.52C351.728 40.66 352.318 39.99 353.078 39.51C353.838 39.03 354.708 38.79 355.688 38.79C356.708 38.79 357.588 39.03 358.328 39.51C359.088 39.99 359.678 40.66 360.098 41.52C360.518 42.38 360.728 43.39 360.728 44.55C360.728 45.71 360.518 46.72 360.098 47.58C359.678 48.44 359.088 49.11 358.328 49.59C357.588 50.07 356.708 50.31 355.688 50.31ZM355.718 48.21C356.518 48.21 357.138 47.9 357.578 47.28C358.038 46.64 358.268 45.73 358.268 44.55C358.268 43.37 358.038 42.47 357.578 41.85C357.138 41.21 356.518 40.89 355.718 40.89C354.918 40.89 354.278 41.21 353.798 41.85C353.338 42.49 353.108 43.39 353.108 44.55C353.108 45.71 353.338 46.61 353.798 47.25C354.278 47.89 354.918 48.21 355.718 48.21ZM369.458 60.21C368.478 60.21 367.608 59.97 366.848 59.49C366.088 59.01 365.498 58.34 365.078 57.48C364.658 56.62 364.448 55.61 364.448 54.45C364.448 53.29 364.658 52.28 365.078 51.42C365.498 50.56 366.088 49.89 366.848 49.41C367.608 48.93 368.478 48.69 369.458 48.69C370.478 48.69 371.358 48.93 372.098 49.41C372.858 49.89 373.448 50.56 373.868 51.42C374.288 52.28 374.498 53.29 374.498 54.45C374.498 55.61 374.288 56.62 373.868 57.48C373.448 58.34 372.858 59.01 372.098 59.49C371.358 59.97 370.478 60.21 369.458 60.21ZM369.458 58.11C370.258 58.11 370.888 57.79 371.348 57.15C371.808 56.51 372.038 55.61 372.038 54.45C372.038 53.29 371.808 52.39 371.348 51.75C370.888 51.11 370.258 50.79 369.458 50.79C368.678 50.79 368.048 51.11 367.568 51.75C367.108 52.37 366.878 53.27 366.878 54.45C366.878 55.63 367.108 56.54 367.568 57.18C368.048 57.8 368.678 58.11 369.458 58.11Z" fill="black"/>
<defs>
<filter id="filter0_d_380_195" x="0" y="0" width="202" height="108" filterUnits="userSpaceOnUse" color-interpolation-filters="sRGB">
<feFlood flood-opacity="0" result="BackgroundImageFix"/>
<feColorMatrix in="SourceAlpha" type="matrix" values="0 0 0 0 0 0 0 0 0 0 0 0 0 0 0 0 0 0 127 0" result="hardAlpha"/>
<feMorphology radius="1" operator="dilate" in="SourceAlpha" result="effect1_dropShadow_380_195"/>
<feOffset dx="3" dy="4"/>
<feGaussianBlur stdDeviation="5"/>
<feComposite in2="hardAlpha" operator="out"/>
<feColorMatrix type="matrix" values="0 0 0 0 0 0 0 0 0 0 0 0 0 0 0 0 0 0 0.15 0"/>
<feBlend mode="normal" in2="BackgroundImageFix" result="effect1_dropShadow_380_195"/>
<feBlend mode="normal" in="SourceGraphic" in2="effect1_dropShadow_380_195" result="shape"/>
</filter>
<filter id="filter1_d_380_195" x="0" y="101" width="202" height="108" filterUnits="userSpaceOnUse" color-interpolation-filters="sRGB">
<feFlood flood-opacity="0" result="BackgroundImageFix"/>
<feColorMatrix in="SourceAlpha" type="matrix" values="0 0 0 0 0 0 0 0 0 0 0 0 0 0 0 0 0 0 127 0" result="hardAlpha"/>
<feMorphology radius="1" operator="dilate" in="SourceAlpha" result="effect1_dropShadow_380_195"/>
<feOffset dx="3" dy="4"/>
<feGaussianBlur stdDeviation="5"/>
<feComposite in2="hardAlpha" operator="out"/>
<feColorMatrix type="matrix" values="0 0 0 0 0 0 0 0 0 0 0 0 0 0 0 0 0 0 0.15 0"/>
<feBlend mode="normal" in2="BackgroundImageFix" result="effect1_dropShadow_380_195"/>
<feBlend mode="normal" in="SourceGraphic" in2="effect1_dropShadow_380_195" result="shape"/>
</filter>
<filter id="filter2_d_380_195" x="195" y="0" width="203" height="108" filterUnits="userSpaceOnUse" color-interpolation-filters="sRGB">
<feFlood flood-opacity="0" result="BackgroundImageFix"/>
<feColorMatrix in="SourceAlpha" type="matrix" values="0 0 0 0 0 0 0 0 0 0 0 0 0 0 0 0 0 0 127 0" result="hardAlpha"/>
<feMorphology radius="1" operator="dilate" in="SourceAlpha" result="effect1_dropShadow_380_195"/>
<feOffset dx="3" dy="4"/>
<feGaussianBlur stdDeviation="5"/>
<feComposite in2="hardAlpha" operator="out"/>
<feColorMatrix type="matrix" values="0 0 0 0 0 0 0 0 0 0 0 0 0 0 0 0 0 0 0.15 0"/>
<feBlend mode="normal" in2="BackgroundImageFix" result="effect1_dropShadow_380_195"/>
<feBlend mode="normal" in="SourceGraphic" in2="effect1_dropShadow_380_195" result="shape"/>
</filter>
<filter id="filter3_d_380_195" x="195" y="101" width="203" height="108" filterUnits="userSpaceOnUse" color-interpolation-filters="sRGB">
<feFlood flood-opacity="0" result="BackgroundImageFix"/>
<feColorMatrix in="SourceAlpha" type="matrix" values="0 0 0 0 0 0 0 0 0 0 0 0 0 0 0 0 0 0 127 0" result="hardAlpha"/>
<feMorphology radius="1" operator="dilate" in="SourceAlpha" result="effect1_dropShadow_380_195"/>
<feOffset dx="3" dy="4"/>
<feGaussianBlur stdDeviation="5"/>
<feComposite in2="hardAlpha" operator="out"/>
<feColorMatrix type="matrix" values="0 0 0 0 0 0 0 0 0 0 0 0 0 0 0 0 0 0 0.15 0"/>
<feBlend mode="normal" in2="BackgroundImageFix" result="effect1_dropShadow_380_195"/>
<feBlend mode="normal" in="SourceGraphic" in2="effect1_dropShadow_380_195" result="shape"/>
</filter>
</defs>
</svg>
